<svg width="535.9500122070312px" height="121.383740234375px" xmlns="http://www.w3.org/2000/svg" viewBox="-17.975006103515625 14.308129882812501 535.9500122070312 121.383740234375" style="background-color: rgba(0, 0, 0, 0); background-position: initial initial; background-repeat: initial initial;" preserveAspectRatio="xMidYMid"><defs><filter id="editing-extrusion" x="-100%" y="-100%" width="300%" height="300%"><feFlood result="color1" flood-color="#444"></feFlood><feConvolveMatrix order="8,8" divisor="1" kernelMatrix="1 0 0 0 0 0 0 0 0 1 0 0 0 0 0 0 0 0 1 0 0 0 0 0 0 0 0 1 0 0 0 0 0 0 0 0 1 0 0 0 0 0 0 0 0 1 0 0 0 0 0 0 0 0 1 0 0 0 0 0 0 0 0 1" in="SourceAlpha" result="extrude"></feConvolveMatrix><feComposite in="color1" in2="extrude" result="comp-extrude" operator="in"></feComposite><feOffset dx="4" dy="4" in="comp-extrude" result="offset-extrude"></feOffset><feMerge><feMergeNode in="offset-extrude"></feMergeNode><feMergeNode in="SourceGraphic"></feMergeNode></feMerge></filter></defs><g filter="url(#editing-extrusion)"><g transform="translate(61.80500486493111, 97.43781280517578)"><path d="M26.11-42.69L26.11-42.69L26.11-42.69Q41.79-42.69 41.79-31.62L41.79-31.62L41.79-31.62Q41.79-25.54 37.89-21.89L37.89-21.89L37.89-21.89Q34.05-18.24 27.33-18.24L27.33-18.24L27.33-18.24Q24.19-18.24 21.76-20.03L21.76-20.03L21.76-20.03Q20.61-20.80 19.84-21.82L19.84-21.82L19.84-21.82Q24.51-21.82 26.98-24.67L26.98-24.67L26.98-24.67Q29.44-27.52 29.44-33.09L29.44-33.09L29.44-33.09Q29.44-38.66 23.94-38.66L23.94-38.66L22.40-38.66L22.40-38.66Q22.02-38.66 21.70-38.59L21.70-38.59L14.34 0L0.45 0L8.32-41.92L8.32-41.92Q15.17-42.56 19.14-42.62L19.14-42.62L19.14-42.62Q23.10-42.69 26.11-42.69ZM43.07-15.62L43.07-15.62L43.07-15.62Q43.07-27.71 49.34-35.33L49.34-35.33L49.34-35.33Q56-43.58 67.58-43.58L67.58-43.58L67.58-43.58Q75.97-43.58 80.19-39.52L80.19-39.52L80.19-39.52Q84.42-35.46 84.42-26.88L84.42-26.88L84.42-26.88Q84.42-13.82 77.76-6.21L77.76-6.21L77.76-6.21Q71.17 1.28 60.10 1.28L60.10 1.28L60.10 1.28Q51.46 1.28 47.26-3.04L47.26-3.04L47.26-3.04Q43.07-7.36 43.07-15.62ZM59.90-28.86L59.90-28.86L59.90-28.86Q57.02-17.34 57.02-8.26L57.02-8.26L57.02-8.26Q57.02-6.08 57.76-4.67L57.76-4.67L57.76-4.67Q58.50-3.26 60.45-3.26L60.45-3.26L60.45-3.26Q62.40-3.26 63.62-4.19L63.62-4.19L63.62-4.19Q64.83-5.12 65.79-7.23L65.79-7.23L65.79-7.23Q67.33-10.69 68.77-18.02L68.77-18.02L68.77-18.02Q70.21-25.34 70.34-28.38L70.34-28.38L70.34-28.38Q70.46-31.42 70.46-33.73L70.46-33.73L70.46-33.73Q70.46-36.03 69.76-37.50L69.76-37.50L69.76-37.50Q69.06-38.98 67.17-38.98L67.17-38.98L67.17-38.98Q65.28-38.98 64-37.82L64-37.82L64-37.82Q61.63-35.65 59.90-28.86ZM114.30-9.86L114.30-9.86L114.30-9.86Q115.52-8.32 115.52-5.34L115.52-5.34L115.52-5.34Q115.52-2.37 113.25-0.54L113.25-0.54L113.25-0.54Q110.98 1.28 107.01 1.28L107.01 1.28L107.01 1.28Q104.70 1.28 101.12 0.77L101.12 0.77L101.12 0.77Q94.08-0.32 92.06-0.32L92.06-0.32L92.06-0.32Q90.05-0.32 89.22-0.22L89.22-0.22L89.22-0.22Q88.38-0.13 87.04 0L87.04 0L94.78-42.24L108.80-42.24L102.40-7.04L102.40-7.04Q103.23-6.91 104-6.91L104-6.91L105.60-6.91L105.60-6.91Q110.98-6.91 114.30-9.86ZM122.82 0L126.53-18.82L126.53-18.82Q124.67-36.16 118.14-39.87L118.14-39.87L118.14-39.87Q119.49-41.54 121.66-42.46L121.66-42.46L121.66-42.46Q123.84-43.39 126.46-43.39L126.46-43.39L126.46-43.39Q129.09-43.39 131.07-42.46L131.07-42.46L131.07-42.46Q133.06-41.54 134.34-39.55L134.34-39.55L134.34-39.55Q136.77-35.78 136.77-26.75L136.77-26.75L136.77-22.14L136.77-22.14Q140.61-33.41 144.45-38.27L144.45-38.27L144.45-38.27Q148.35-43.26 153.22-43.26L153.22-43.26L153.22-43.26Q155.14-43.26 156.42-42.27L156.42-42.27L156.42-42.27Q157.70-41.28 158.34-39.81L158.34-39.81L158.34-39.81Q153.41-37.63 148.67-31.36L148.67-31.36L148.67-31.36Q143.94-25.09 140.86-16.32L140.86-16.32L137.09 0L122.82 0ZM196.42-26.56L196.42-26.56L196.42-26.56Q196.42 0.70 166.85 0.70L166.85 0.70L166.85 0.70Q162.11 0.70 154.30-0.45L154.30-0.45L161.47-38.27L161.47-38.27Q161.98-40.83 162.30-42.30L162.30-42.30L162.30-42.30Q172.03-43.01 176.35-43.01L176.35-43.01L176.35-43.01Q180.67-43.01 184.64-42.11L184.64-42.11L184.64-42.11Q188.61-41.22 191.23-39.23L191.23-39.23L191.23-39.23Q196.42-35.33 196.42-26.56ZM183.23-28.93L183.23-28.93L183.23-28.93Q183.23-38.46 176.38-38.46L176.38-38.46L175.74-38.46L175.74-38.46Q175.42-38.46 175.10-38.40L175.10-38.40L168.51-4.03L168.51-4.03Q168.77-3.90 169.02-3.90L169.02-3.90L169.54-3.90L169.54-3.90Q171.90-3.90 174.37-5.38L174.37-5.38L174.37-5.38Q176.83-6.85 178.75-9.86L178.75-9.86L178.75-9.86Q183.23-16.83 183.23-28.93ZM227.01-9.86L227.01-9.86L227.01-9.86Q228.22-8.32 228.22-5.82L228.22-5.82L228.22-5.82Q228.22-2.37 225.66-0.54L225.66-0.54L225.66-0.54Q223.10 1.28 219.07 1.28L219.07 1.28L219.07 1.28Q216.77 1.28 213.25 0.77L213.25 0.77L213.25 0.77Q206.34-0.32 204.22-0.32L204.22-0.32L204.22-0.32Q202.11-0.32 201.28-0.22L201.28-0.22L201.28-0.22Q200.45-0.13 199.10 0L199.10 0L206.98-42.24L234.56-42.24L234.56-42.24Q234.56-38.34 232.67-36.29L232.67-36.29L232.67-36.29Q230.78-34.24 227.07-34.24L227.07-34.24L227.07-34.24Q223.36-34.24 219.58-35.97L219.58-35.97L217.60-24.77L228.99-24.77L228.99-24.77Q228.99-21.38 227.33-19.49L227.33-19.49L227.33-19.49Q225.66-17.60 222.88-17.60L222.88-17.60L222.88-17.60Q220.10-17.60 218.37-18.24L218.37-18.24L218.37-18.24Q216.64-18.88 216.45-19.07L216.45-19.07L214.14-6.98L214.14-6.98Q215.68-6.78 218.56-6.78L218.56-6.78L218.56-6.78Q223.49-6.78 227.01-9.86ZM259.07-29.57L259.07-29.57L259.07-29.57Q260.03-31.49 260.03-33.28L260.03-33.28L260.03-33.28Q260.03-35.07 259.84-36.06L259.84-36.06L259.84-36.06Q259.65-37.06 259.20-37.82L259.20-37.82L259.20-37.82Q258.24-39.49 256.32-39.49L256.32-39.49L256.32-39.49Q253.95-39.49 252.03-37.76L252.03-37.76L252.03-37.76Q249.98-35.97 249.98-33.15L249.98-33.15L249.98-33.15Q249.98-31.36 251.23-29.98L251.23-29.98L251.23-29.98Q252.48-28.61 254.40-27.33L254.40-27.33L254.40-27.33Q256.32-26.05 258.50-24.77L258.50-24.77L258.50-24.77Q260.67-23.49 262.59-21.95L262.59-21.95L262.59-21.95Q267.01-18.43 267.01-13.70L267.01-13.70L267.01-13.70Q267.01-10.50 265.31-7.78L265.31-7.78L265.31-7.78Q263.62-5.06 260.80-3.07L260.80-3.07L260.80-3.07Q254.66 1.28 246.53 1.28L246.53 1.28L246.53 1.28Q239.94 1.28 236.54-0.86L236.54-0.86L236.54-0.86Q233.15-3.01 233.15-6.27L233.15-6.27L233.15-6.27Q233.15-12.10 237.70-13.57L237.70-13.57L237.70-13.57Q238.98-14.02 240.93-14.02L240.93-14.02L240.93-14.02Q242.88-14.02 245.12-13.18L245.12-13.18L245.12-13.18Q244.10-10.56 244.10-8.19L244.10-8.19L244.10-8.19Q244.10-3.07 247.74-3.07L247.74-3.07L247.74-3.07Q250.11-3.07 252.06-4.80L252.06-4.80L252.06-4.80Q254.02-6.53 254.02-8.48L254.02-8.48L254.02-8.48Q254.02-10.43 252.77-11.84L252.77-11.84L252.77-11.84Q251.52-13.25 249.66-14.37L249.66-14.37L249.66-14.37Q247.81-15.49 245.66-16.58L245.66-16.58L245.66-16.58Q243.52-17.66 241.66-19.20L241.66-19.20L241.66-19.20Q237.31-22.72 237.31-28.35L237.31-28.35L237.31-28.35Q237.31-32 239.10-34.85L239.10-34.85L239.10-34.85Q240.90-37.70 243.78-39.62L243.78-39.62L243.78-39.62Q249.54-43.52 256.61-43.52L256.61-43.52L256.61-43.52Q263.68-43.52 267.10-41.41L267.10-41.41L267.10-41.41Q270.53-39.30 270.53-35.71L270.53-35.71L270.53-35.71Q270.53-32.58 268.10-30.59L268.10-30.59L268.10-30.59Q265.98-28.93 263.42-28.93L263.42-28.93L263.42-28.93Q260.86-28.93 259.07-29.57ZM296.83-29.57L296.83-29.57L296.83-29.57Q297.79-31.49 297.79-33.28L297.79-33.28L297.79-33.28Q297.79-35.07 297.60-36.06L297.60-36.06L297.60-36.06Q297.41-37.06 296.96-37.82L296.96-37.82L296.96-37.82Q296-39.49 294.08-39.49L294.08-39.49L294.08-39.49Q291.71-39.49 289.79-37.76L289.79-37.76L289.79-37.76Q287.74-35.97 287.74-33.15L287.74-33.15L287.74-33.15Q287.74-31.36 288.99-29.98L288.99-29.98L288.99-29.98Q290.24-28.61 292.16-27.33L292.16-27.33L292.16-27.33Q294.08-26.05 296.26-24.77L296.26-24.77L296.26-24.77Q298.43-23.49 300.35-21.95L300.35-21.95L300.35-21.95Q304.77-18.43 304.77-13.70L304.77-13.70L304.77-13.70Q304.77-10.50 303.07-7.78L303.07-7.78L303.07-7.78Q301.38-5.06 298.56-3.07L298.56-3.07L298.56-3.07Q292.42 1.28 284.29 1.28L284.29 1.28L284.29 1.28Q277.70 1.28 274.30-0.86L274.30-0.86L274.30-0.86Q270.91-3.01 270.91-6.27L270.91-6.27L270.91-6.27Q270.91-12.10 275.46-13.57L275.46-13.57L275.46-13.57Q276.74-14.02 278.69-14.02L278.69-14.02L278.69-14.02Q280.64-14.02 282.88-13.18L282.88-13.18L282.88-13.18Q281.86-10.56 281.86-8.19L281.86-8.19L281.86-8.19Q281.86-3.07 285.50-3.07L285.50-3.07L285.50-3.07Q287.87-3.07 289.82-4.80L289.82-4.80L289.82-4.80Q291.78-6.53 291.78-8.48L291.78-8.48L291.78-8.48Q291.78-10.43 290.53-11.84L290.53-11.84L290.53-11.84Q289.28-13.25 287.42-14.37L287.42-14.37L287.42-14.37Q285.57-15.49 283.42-16.58L283.42-16.58L283.42-16.58Q281.28-17.66 279.42-19.20L279.42-19.20L279.42-19.20Q275.07-22.72 275.07-28.35L275.07-28.35L275.07-28.35Q275.07-32 276.86-34.85L276.86-34.85L276.86-34.85Q278.66-37.70 281.54-39.62L281.54-39.62L281.54-39.62Q287.30-43.52 294.37-43.52L294.37-43.52L294.37-43.52Q301.44-43.52 304.86-41.41L304.86-41.41L304.86-41.41Q308.29-39.30 308.29-35.71L308.29-35.71L308.29-35.71Q308.29-32.58 305.86-30.59L305.86-30.59L305.86-30.59Q303.74-28.93 301.18-28.93L301.18-28.93L301.18-28.93Q298.62-28.93 296.83-29.57ZM322.88 0L308.93 0L317.06-42.24L331.14-42.24L322.88 0ZM339.14 0L332.10 0L339.78-42.24L353.54-42.24L363.52-13.18L368.83-42.24L375.94-42.18L368.13 0L353.47 0L344.26-27.97L339.14 0Z" fill="#ccc"></path></g></g><style>text {
  font-size: 64px;
  font-family: Arial Black;
  dominant-baseline: central;
  text-anchor: middle;
}</style></svg>