<?xml version="1.0" standalone="no"?>
<!DOCTYPE svg PUBLIC "-//W3C//DTD SVG 20010904//EN"
 "http://www.w3.org/TR/2001/REC-SVG-20010904/DTD/svg10.dtd">
<svg version="1.0" xmlns="http://www.w3.org/2000/svg"
 width="1280.000000pt" height="699.000000pt" viewBox="0 0 1280.000000 699.000000"
 preserveAspectRatio="xMidYMid meet">
<metadata>
Created by potrace 1.15, written by Peter Selinger 2001-2017
</metadata>
<g transform="translate(0.000000,699.000000) scale(0.100000,-0.100000)"
fill="#000000" stroke="none">
<path d="M1915 6975 c-38 -8 -110 -29 -159 -47 l-89 -32 -106 12 c-58 6 -158
20 -221 32 -169 32 -210 26 -426 -58 -276 -108 -382 -137 -542 -148 -105 -8
-136 -22 -224 -104 -116 -106 -166 -244 -144 -394 l7 -46 48 48 c58 58 115 93
196 120 65 22 227 53 235 45 9 -8 -45 -42 -103 -64 -87 -33 -115 -80 -85 -144
16 -35 45 -40 102 -16 54 24 106 28 106 9 -1 -7 -14 -29 -30 -48 -33 -38 -36
-48 -17 -74 12 -16 19 -14 100 34 92 54 283 130 328 130 33 0 89 -60 89 -96 0
-18 -9 -29 -35 -41 -24 -12 -46 -35 -66 -70 -35 -61 -33 -93 5 -119 22 -14 28
-14 53 -1 15 9 42 30 58 47 68 72 118 76 266 21 145 -55 255 -74 405 -69 l123
3 -20 -21 c-13 -14 -19 -35 -19 -67 0 -46 1 -47 49 -71 26 -14 95 -68 152
-121 119 -110 184 -147 272 -153 l59 -5 -46 -29 c-26 -16 -49 -35 -53 -44 -9
-25 33 -60 176 -140 265 -150 403 -263 484 -396 43 -72 34 -65 174 -122 59
-24 191 -83 293 -131 458 -216 636 -270 919 -282 l144 -6 -49 -20 c-57 -22
-147 -26 -305 -13 -135 11 -147 -1 -41 -42 163 -62 358 -100 717 -138 88 -9
164 -20 168 -24 4 -4 -25 -17 -66 -29 -40 -12 -89 -30 -108 -41 -19 -11 -53
-29 -76 -40 -33 -15 -43 -25 -43 -43 0 -50 49 -82 230 -151 78 -30 165 -70
194 -89 29 -19 70 -44 92 -55 52 -27 88 -67 113 -124 25 -59 60 -83 209 -142
181 -72 234 -81 480 -81 116 0 212 -1 212 -3 0 -10 -93 -41 -139 -46 -59 -8
-91 -21 -91 -38 0 -17 71 -78 125 -105 28 -15 124 -56 215 -92 141 -56 197
-86 380 -201 336 -210 547 -311 768 -365 88 -22 182 -66 182 -85 0 -13 147
-136 225 -187 173 -115 431 -198 730 -236 17 -2 -41 -5 -127 -6 -147 -1 -157
-2 -163 -21 -10 -31 3 -57 35 -68 73 -26 681 -63 1023 -62 223 0 423 29 588
85 89 31 131 31 190 2 25 -12 257 -173 515 -358 538 -385 1457 -1030 2097
-1471 53 -37 88 -36 121 3 32 38 33 75 4 116 -21 27 -126 124 -392 358 -50 44
-129 110 -176 146 -115 90 -731 540 -1075 785 -254 182 -382 271 -835 580
-174 120 -198 148 -240 287 -141 468 -233 647 -451 883 -76 81 -94 110 -184
285 -55 107 -134 263 -175 347 -43 88 -77 147 -81 140 -3 -7 -14 -57 -24 -110
-20 -113 -24 -116 -107 -71 -35 19 -70 53 -117 113 -38 47 -92 105 -122 130
-30 24 -99 87 -154 140 -117 113 -164 143 -266 168 -135 34 -172 62 -363 272
-74 81 -155 165 -181 185 -43 36 -52 39 -133 45 -64 6 -102 15 -139 33 -54 28
-208 140 -448 327 -238 186 -253 193 -309 149 -16 -13 -33 -18 -46 -14 -26 8
-26 -7 0 -30 11 -10 20 -24 20 -32 0 -7 15 -30 34 -50 18 -21 61 -77 95 -126
37 -52 84 -104 116 -128 66 -49 80 -85 70 -172 -9 -80 -18 -97 -56 -97 -46 0
-86 45 -94 106 -19 138 -69 265 -150 379 -86 121 -352 348 -424 361 -36 7 -84
-5 -85 -20 -1 -6 24 -29 54 -53 110 -87 151 -126 171 -164 10 -22 16 -39 13
-39 -11 0 -151 79 -264 148 -193 118 -466 319 -678 499 -41 35 -78 60 -84 57
-22 -14 0 -86 37 -124 60 -62 39 -65 -70 -12 -129 64 -818 428 -911 481 -39
23 -78 41 -87 41 -17 0 -57 -45 -57 -65 0 -18 -39 -65 -55 -65 -7 0 -37 21
-67 46 -85 74 -236 170 -350 224 -127 59 -235 92 -417 125 -177 32 -344 78
-599 166 -337 116 -471 158 -572 180 -126 27 -339 34 -435 14z"/>
</g>
</svg>
