<?xml version="1.0" encoding="iso-8859-1"?>
<!-- Generator: Adobe Illustrator 19.0.0, SVG Export Plug-In . SVG Version: 6.00 Build 0)  -->
<svg version="1.1" id="Capa_1" xmlns="http://www.w3.org/2000/svg" xmlns:xlink="http://www.w3.org/1999/xlink" x="0px" y="0px"
	 viewBox="0 0 512 512" style="enable-background:new 0 0 512 512;" xml:space="preserve">
<g>
	<g>
		<path d="M466.112,283.773c0,0-35.691,45.186-35.691,66.27s15.979,38.177,35.691,38.177c19.711,0,35.691-17.093,35.691-38.177
			C501.803,328.958,466.112,283.773,466.112,283.773z"/>
	</g>
</g>
<g>
	<g>
		<polygon points="262.458,54.783 219.431,97.809 282.082,160.5 282.082,74.397 		"/>
	</g>
</g>
<g>
	<g>
		<polygon points="312.073,104.387 312.073,190.49 424.437,302.705 467.404,259.729 		"/>
	</g>
</g>
<g>
	<g>
		<path d="M383.98,304.655l-71.907-71.848v18.114h-29.991v-48.085l-75.486-75.456V67.729c0-20.803,16.935-37.738,37.738-37.738
			c20.814,0,37.748,16.935,37.748,37.738v6.668l29.991,29.991V67.729C312.073,30.391,281.682,0,244.334,0
			c-36.849,0-66.909,29.581-67.709,66.229c-0.01,0.5-0.02,1-0.02,1.5v90.202L10.197,324.339L197.848,512l196.739-196.739
			L383.98,304.655z M206.595,127.94v-0.52l0.26,0.26L206.595,127.94z"/>
	</g>
</g>
<g>
</g>
<g>
</g>
<g>
</g>
<g>
</g>
<g>
</g>
<g>
</g>
<g>
</g>
<g>
</g>
<g>
</g>
<g>
</g>
<g>
</g>
<g>
</g>
<g>
</g>
<g>
</g>
<g>
</g>
</svg>
